# xmcd
#
# Track frame offsets: 
#        150
#        22446
#        36882
#        50092
#        64917
#        81555
#        94597
#        115522
#        131548
#        150177
#        169792
#        186759
#        204568
#        224923
#        238335
#        255973
#
# Disc length: 3696 seconds
#
# Revision: 2
# Processed by: cddbd v1.5.2PL0 Copyright (c) Steve Scherf et al.
# Submitted via: ExactAudioCopy v1.3
#
DISCID=e80e6e10
DTITLE=Mobb Deep - Amerikaz Nightmare
DYEAR=2004
DGENRE=Hip-Hop
TTITLE0=Amerikaz Nightmare
TTITLE1=Win Or Lose
TTITLE2=Flood The Block
TTITLE3=Dump (featuring Nate Dogg)
TTITLE4=Got It Twisted
TTITLE5=When U Hear The
TTITLE6=Real Niggaz
TTITLE7=Shorty Wop
TTITLE8=Real Gangstaz (featuring Lil' Jon)
TTITLE9=One Of Ours Part II (featuring Jadakiss)
TTITLE10=On The Run
TTITLE11=Throw Your Hands (In The Air)
TTITLE12=Get Me (featuring Littles and Noyd)
TTITLE13=We Up
TTITLE14=Neva Change
TTITLE15=Got It Twisted (Remix) (featuring Twista)
EXTD=
EXTT0=
EXTT1=
EXTT2=
EXTT3=
EXTT4=
EXTT5=
EXTT6=
EXTT7=
EXTT8=
EXTT9=
EXTT10=
EXTT11=
EXTT12=
EXTT13=
EXTT14=
EXTT15=
PLAYORDER=
